# xmcd
# 
# Track frame offsets:
#     150
#     20813
#     42353
#     66810
#     83785
#     101325
#     121673
#     136110
#     157980
#     174713
# 
# Disc length: 2690
# 
# Revision: 12
# Processed by: cddbd v1.5.2PL0 Copyright (c) Steve Scherf et al.
# Submitted via: BonkEnc v1.0.8
# 
DISCID=780a800a
DTITLE=Various Artist - America - A Tribute To Heroes [CD1]
DYEAR=2001
DGENRE=Rock
TTITLE0=Bruce Springsteen - My City Of Ruin
TTITLE1=Stevie Wonder and Take 6 - Love's In Need Of Love Today
TTITLE2=U2 - Walk On
TTITLE3=Faith Hill - There Will Come A Day
TTITLE4=Tom Petty and The Heartbreakers - I Won't Back Down
TTITLE5=Enrique Iglesias - Hero
TTITLE6=Neil Young - Imagine
TTITLE7=Alicia Keys - Someday We'll All Be Free
TTITLE8=Limp Bizkit and John Rzeznik - Wish You Were Here
TTITLE9=Billy Joel - New York State Of Mind
EXTD=
EXTT0=
EXTT1=
EXTT2=
EXTT3=
EXTT4=
EXTT5=
EXTT6=
EXTT7=
EXTT8=
EXTT9=
PLAYORDER=
